<mxfile host="65bd71144e">
    <diagram id="eKoGUujnZDEtyhujhG_W" name="Page-1">
        <mxGraphModel dx="8347" dy="5100" grid="1" gridSize="10" guides="1" tooltips="1" connect="1" arrows="1" fold="1" page="1" pageScale="2" pageWidth="850" pageHeight="1100" math="0" shadow="0">
            <root>
                <mxCell id="0"/>
                <mxCell id="1" parent="0"/>
                <mxCell id="38" value="" style="rounded=0;whiteSpace=wrap;html=1;" parent="1" vertex="1">
                    <mxGeometry x="-400" y="-350" width="2780" height="2180" as="geometry"/>
                </mxCell>
                <mxCell id="hb2xzzKgo9RsKNRLrnYX-1" value="Program" style="swimlane;fontStyle=1;align=center;verticalAlign=top;childLayout=stackLayout;horizontal=1;startSize=26;horizontalStack=0;resizeParent=1;resizeParentMax=0;resizeLast=0;collapsible=1;marginBottom=0;fillColor=#a0522d;fontColor=#ffffff;strokeColor=#6D1F00;" parent="1" vertex="1">
                    <mxGeometry x="840" y="520" width="290" height="300" as="geometry"/>
                </mxCell>
                <mxCell id="hb2xzzKgo9RsKNRLrnYX-2" value="+ coordinator: Coordinator" style="text;strokeColor=#314354;fillColor=#647687;align=left;verticalAlign=top;spacingLeft=4;spacingRight=4;overflow=hidden;rotatable=0;points=[[0,0.5],[1,0.5]];portConstraint=eastwest;fontStyle=4;fontColor=#ffffff;" parent="hb2xzzKgo9RsKNRLrnYX-1" vertex="1">
                    <mxGeometry y="26" width="290" height="26" as="geometry"/>
                </mxCell>
                <mxCell id="hb2xzzKgo9RsKNRLrnYX-3" value="" style="line;strokeWidth=1;fillColor=none;align=left;verticalAlign=middle;spacingTop=-1;spacingLeft=3;spacingRight=3;rotatable=0;labelPosition=right;points=[];portConstraint=eastwest;strokeColor=inherit;" parent="hb2xzzKgo9RsKNRLrnYX-1" vertex="1">
                    <mxGeometry y="52" width="290" height="8" as="geometry"/>
                </mxCell>
                <mxCell id="hb2xzzKgo9RsKNRLrnYX-4" value="+ Main(): Void&#10;+ RunProgram(): Void&#10;+ HandleMenuSelection(string selected): Void&#10;+ HandleCustomerMenu(): Void&#10;+ AddCustomerProcess(): Void&#10;+ ViewCustomerProcess(): Void&#10;+ DeleteCustomerProcess(): Void&#10;+ HandleFlightMenu(): Void&#10;+ AddFlightProcess(): Void&#10;+ ViewFlightsProcess(): Void&#10;+ ViewSpecificFlightProcess(): Void&#10;+ DeleteFlightProcess(): Void&#10;+ HandleBookingMenu(): Void&#10;+ MakeBookingProcess(): Void&#10;+ ViewBookingsProcess(): Void&#10;&#10;&#10;" style="text;strokeColor=#314354;fillColor=#647687;align=left;verticalAlign=top;spacingLeft=4;spacingRight=4;overflow=hidden;rotatable=0;points=[[0,0.5],[1,0.5]];portConstraint=eastwest;fontStyle=4;fontColor=#ffffff;" parent="hb2xzzKgo9RsKNRLrnYX-1" vertex="1">
                    <mxGeometry y="60" width="290" height="240" as="geometry"/>
                </mxCell>
                <mxCell id="43" style="edgeStyle=none;html=1;exitX=0.617;exitY=1.039;exitDx=0;exitDy=0;exitPerimeter=0;entryX=0.4;entryY=0.007;entryDx=0;entryDy=0;entryPerimeter=0;" parent="1" source="hb2xzzKgo9RsKNRLrnYX-9" target="hb2xzzKgo9RsKNRLrnYX-1" edge="1">
                    <mxGeometry relative="1" as="geometry">
                        <mxPoint x="960" y="510" as="targetPoint"/>
                    </mxGeometry>
                </mxCell>
                <mxCell id="hb2xzzKgo9RsKNRLrnYX-6" value="Coordinator" style="swimlane;fontStyle=1;align=center;verticalAlign=top;childLayout=stackLayout;horizontal=1;startSize=26;horizontalStack=0;resizeParent=1;resizeParentMax=0;resizeLast=0;collapsible=1;marginBottom=0;fillColor=#a0522d;fontColor=#ffffff;strokeColor=#6D1F00;" parent="1" vertex="1">
                    <mxGeometry x="600" y="10" width="580" height="240" as="geometry">
                        <mxRectangle x="420" y="20" width="110" height="30" as="alternateBounds"/>
                    </mxGeometry>
                </mxCell>
                <mxCell id="hb2xzzKgo9RsKNRLrnYX-7" value="- flights: FlightList { readOnly }&#10;- bookings: BookingList { readOnly }&#10;- customers: CustomerList { readOnly }" style="text;strokeColor=#314354;fillColor=#647687;align=left;verticalAlign=top;spacingLeft=4;spacingRight=4;overflow=hidden;rotatable=0;points=[[0,0.5],[1,0.5]];portConstraint=eastwest;fontColor=#ffffff;" parent="hb2xzzKgo9RsKNRLrnYX-6" vertex="1">
                    <mxGeometry y="26" width="580" height="54" as="geometry"/>
                </mxCell>
                <mxCell id="hb2xzzKgo9RsKNRLrnYX-8" value="" style="line;strokeWidth=1;fillColor=none;align=left;verticalAlign=middle;spacingTop=-1;spacingLeft=3;spacingRight=3;rotatable=0;labelPosition=right;points=[];portConstraint=eastwest;strokeColor=inherit;" parent="hb2xzzKgo9RsKNRLrnYX-6" vertex="1">
                    <mxGeometry y="80" width="580" height="8" as="geometry"/>
                </mxCell>
                <mxCell id="hb2xzzKgo9RsKNRLrnYX-9" value="+ Coordinator(FlightList flights, BookingList bookings, CustomerList customers)&#10;+ AddFlight(int flightNumber, string origin, string destination, int capacity, int numberOfPassengers(): Bool&#10;+ ViewFlights(): String&#10;+ ViewSpecifcFlight(int flightNumber): String&#10;+ DeleteFlight(int flightNumber): Bool&#10;+ AddCustomer(string firstName, string lastName, string phone): Bool&#10;+ ViewCustomers(): String&#10;+ DeleteCustomer(int customerID): Bool&#10;+ MakeBooking(string date, int flightNumber, int GetCustomerID): Bool&#10;+ ViewBookings(): String" style="text;strokeColor=#314354;fillColor=#647687;align=left;verticalAlign=top;spacingLeft=4;spacingRight=4;overflow=hidden;rotatable=0;points=[[0,0.5],[1,0.5]];portConstraint=eastwest;fontColor=#ffffff;" parent="hb2xzzKgo9RsKNRLrnYX-6" vertex="1">
                    <mxGeometry y="88" width="580" height="152" as="geometry"/>
                </mxCell>
                <mxCell id="hb2xzzKgo9RsKNRLrnYX-10" value="Customer" style="swimlane;fontStyle=1;align=center;verticalAlign=top;childLayout=stackLayout;horizontal=1;startSize=26;horizontalStack=0;resizeParent=1;resizeParentMax=0;resizeLast=0;collapsible=1;marginBottom=0;fillColor=#a0522d;fontColor=#ffffff;strokeColor=#6D1F00;" parent="1" vertex="1">
                    <mxGeometry x="1330" y="80" width="460" height="260" as="geometry"/>
                </mxCell>
                <mxCell id="hb2xzzKgo9RsKNRLrnYX-11" value="- firstName: String { readOnly }&#10;- lastName: String { readOnly }&#10;- validID: Int { readOnly }&#10;- phone: String { readOnly }&#10;- numberOfBookings: Int" style="text;strokeColor=#314354;fillColor=#647687;align=left;verticalAlign=top;spacingLeft=4;spacingRight=4;overflow=hidden;rotatable=0;points=[[0,0.5],[1,0.5]];portConstraint=eastwest;fontStyle=0;fontColor=#ffffff;" parent="hb2xzzKgo9RsKNRLrnYX-10" vertex="1">
                    <mxGeometry y="26" width="460" height="74" as="geometry"/>
                </mxCell>
                <mxCell id="hb2xzzKgo9RsKNRLrnYX-22" value="" style="edgeStyle=none;html=1;fontFamily=Verdana;" parent="hb2xzzKgo9RsKNRLrnYX-10" source="hb2xzzKgo9RsKNRLrnYX-20" target="hb2xzzKgo9RsKNRLrnYX-13" edge="1">
                    <mxGeometry relative="1" as="geometry"/>
                </mxCell>
                <mxCell id="hb2xzzKgo9RsKNRLrnYX-20" value="&lt;span style=&quot;font-family: Helvetica;&quot;&gt;&amp;nbsp;&lt;u&gt;- customerID: Int&lt;/u&gt;&lt;/span&gt;" style="text;html=1;strokeColor=#314354;fillColor=#647687;align=left;verticalAlign=middle;whiteSpace=wrap;rounded=0;fontFamily=Verdana;fontColor=#ffffff;" parent="hb2xzzKgo9RsKNRLrnYX-10" vertex="1">
                    <mxGeometry y="100" width="460" height="20" as="geometry"/>
                </mxCell>
                <mxCell id="hb2xzzKgo9RsKNRLrnYX-12" value="" style="line;strokeWidth=1;fillColor=none;align=left;verticalAlign=middle;spacingTop=-1;spacingLeft=3;spacingRight=3;rotatable=0;labelPosition=right;points=[];portConstraint=eastwest;strokeColor=inherit;" parent="hb2xzzKgo9RsKNRLrnYX-10" vertex="1">
                    <mxGeometry y="120" width="460" height="8" as="geometry"/>
                </mxCell>
                <mxCell id="hb2xzzKgo9RsKNRLrnYX-13" value="+ Customer(string firstName, string lastName, string phone, int numberOfBookings)&#10;+ GetFirstName(): String&#10;+ GetLastName(): String&#10;+ GetCustomerID(): Int&#10;+ GetPhone(): String&#10;+ GetNumberOfBookings(): Int&#10;+ AddBooking(): Void&#10;+ ToString(): String { Redefines ToString() }" style="text;strokeColor=#314354;fillColor=#647687;align=left;verticalAlign=top;spacingLeft=4;spacingRight=4;overflow=hidden;rotatable=0;points=[[0,0.5],[1,0.5]];portConstraint=eastwest;fontColor=#ffffff;" parent="hb2xzzKgo9RsKNRLrnYX-10" vertex="1">
                    <mxGeometry y="128" width="460" height="132" as="geometry"/>
                </mxCell>
                <mxCell id="28" style="edgeStyle=none;html=1;entryX=0.843;entryY=1.03;entryDx=0;entryDy=0;entryPerimeter=0;exitX=0.885;exitY=1;exitDx=0;exitDy=0;exitPerimeter=0;" parent="1" source="hb2xzzKgo9RsKNRLrnYX-19" target="hb2xzzKgo9RsKNRLrnYX-13" edge="1">
                    <mxGeometry relative="1" as="geometry">
                        <mxPoint x="1246" y="1220" as="sourcePoint"/>
                        <mxPoint x="1740" y="340" as="targetPoint"/>
                        <Array as="points">
                            <mxPoint x="1240" y="1370"/>
                            <mxPoint x="1718" y="1370"/>
                        </Array>
                    </mxGeometry>
                </mxCell>
                <mxCell id="hb2xzzKgo9RsKNRLrnYX-16" value="Flight" style="swimlane;fontStyle=1;align=center;verticalAlign=top;childLayout=stackLayout;horizontal=1;startSize=26;horizontalStack=0;resizeParent=1;resizeParentMax=0;resizeLast=0;collapsible=1;marginBottom=0;fillColor=#a0522d;fontColor=#ffffff;strokeColor=#6D1F00;" parent="1" vertex="1">
                    <mxGeometry x="780" y="970" width="520" height="260" as="geometry"/>
                </mxCell>
                <mxCell id="hb2xzzKgo9RsKNRLrnYX-17" value="- flightNumber: Int { readOnly }&#10;- origin: String { readOnly }&#10;- destination: String { readOnly }&#10;- capacity: Int { readOnly }&#10;- numberOfPassengers: Int&#10;- passengers: Customer[]" style="text;strokeColor=#314354;fillColor=#647687;align=left;verticalAlign=top;spacingLeft=4;spacingRight=4;overflow=hidden;rotatable=0;points=[[0,0.5],[1,0.5]];portConstraint=eastwest;fontStyle=0;fontColor=#ffffff;" parent="hb2xzzKgo9RsKNRLrnYX-16" vertex="1">
                    <mxGeometry y="26" width="520" height="94" as="geometry"/>
                </mxCell>
                <mxCell id="hb2xzzKgo9RsKNRLrnYX-18" value="" style="line;strokeWidth=1;fillColor=none;align=left;verticalAlign=middle;spacingTop=-1;spacingLeft=3;spacingRight=3;rotatable=0;labelPosition=right;points=[];portConstraint=eastwest;strokeColor=inherit;" parent="hb2xzzKgo9RsKNRLrnYX-16" vertex="1">
                    <mxGeometry y="120" width="520" height="8" as="geometry"/>
                </mxCell>
                <mxCell id="hb2xzzKgo9RsKNRLrnYX-19" value="+ Flight(int flightNumber, string origin, string destination, int capacity, int numberOfPassengers)&#10;+ GetFlightNumber(): Int&#10;+ GetOrigin(): String&#10;+ GetDestination(): String&#10;+ GetCapacity(): Int&#10;+ GetNumberOfPassengers(): Int&#10;+ AddPassengers(): String&#10;+ ToString(): String { Redefines ToString() }" style="text;strokeColor=#314354;fillColor=#647687;align=left;verticalAlign=top;spacingLeft=4;spacingRight=4;overflow=hidden;rotatable=0;points=[[0,0.5],[1,0.5]];portConstraint=eastwest;fontColor=#ffffff;" parent="hb2xzzKgo9RsKNRLrnYX-16" vertex="1">
                    <mxGeometry y="128" width="520" height="132" as="geometry"/>
                </mxCell>
                <mxCell id="hb2xzzKgo9RsKNRLrnYX-23" value="Booking" style="swimlane;fontStyle=1;align=center;verticalAlign=top;childLayout=stackLayout;horizontal=1;startSize=26;horizontalStack=0;resizeParent=1;resizeParentMax=0;resizeLast=0;collapsible=1;marginBottom=0;fillColor=#a0522d;fontColor=#ffffff;strokeColor=#6D1F00;" parent="1" vertex="1">
                    <mxGeometry x="570" y="1300" width="320" height="208" as="geometry"/>
                </mxCell>
                <mxCell id="hb2xzzKgo9RsKNRLrnYX-24" value="- date: String { readOnly }&#10;- validNumber: Int { readOnly }&#10;- bookingID: Int { readOnly }&#10;- flight: Flight { readOnly }&#10;- customer: Customer { readOnly }" style="text;strokeColor=#314354;fillColor=#647687;align=left;verticalAlign=top;spacingLeft=4;spacingRight=4;overflow=hidden;rotatable=0;points=[[0,0.5],[1,0.5]];portConstraint=eastwest;fontStyle=0;fontColor=#ffffff;" parent="hb2xzzKgo9RsKNRLrnYX-23" vertex="1">
                    <mxGeometry y="26" width="320" height="74" as="geometry"/>
                </mxCell>
                <mxCell id="hb2xzzKgo9RsKNRLrnYX-25" value="" style="edgeStyle=none;html=1;fontFamily=Verdana;" parent="hb2xzzKgo9RsKNRLrnYX-23" target="hb2xzzKgo9RsKNRLrnYX-28" edge="1">
                    <mxGeometry relative="1" as="geometry">
                        <mxPoint x="160" y="120" as="sourcePoint"/>
                    </mxGeometry>
                </mxCell>
                <mxCell id="hb2xzzKgo9RsKNRLrnYX-27" value="" style="line;strokeWidth=1;fillColor=none;align=left;verticalAlign=middle;spacingTop=-1;spacingLeft=3;spacingRight=3;rotatable=0;labelPosition=right;points=[];portConstraint=eastwest;strokeColor=inherit;" parent="hb2xzzKgo9RsKNRLrnYX-23" vertex="1">
                    <mxGeometry y="100" width="320" height="8" as="geometry"/>
                </mxCell>
                <mxCell id="hb2xzzKgo9RsKNRLrnYX-28" value="+ Booking(string date, Flight flight, Customer customer)&#10;+ GetDate(): String&#10;+ GetBookingID(): Int&#10;+ GetFlight(): Flight&#10;+ GetCustomer(): Customer&#10;+ ToString(): String { Redefines ToString() }" style="text;strokeColor=#314354;fillColor=#647687;align=left;verticalAlign=top;spacingLeft=4;spacingRight=4;overflow=hidden;rotatable=0;points=[[0,0.5],[1,0.5]];portConstraint=eastwest;fontColor=#ffffff;" parent="hb2xzzKgo9RsKNRLrnYX-23" vertex="1">
                    <mxGeometry y="108" width="320" height="100" as="geometry"/>
                </mxCell>
                <mxCell id="hb2xzzKgo9RsKNRLrnYX-29" value="Menus" style="swimlane;fontStyle=1;align=center;verticalAlign=top;childLayout=stackLayout;horizontal=1;startSize=26;horizontalStack=0;resizeParent=1;resizeParentMax=0;resizeLast=0;collapsible=1;marginBottom=0;fontFamily=Verdana;fillColor=#a0522d;fontColor=#ffffff;strokeColor=#6D1F00;" parent="1" vertex="1">
                    <mxGeometry x="270" y="220" width="260" height="102" as="geometry"/>
                </mxCell>
                <mxCell id="hb2xzzKgo9RsKNRLrnYX-32" value="+ DisplayMainMenu(): Void&#10;+ DisplayCustomerMenu(): Void&#10;+ DisplayFlightMenu(): Void&#10;+ DisplayBookingMenu(): Void" style="text;strokeColor=#314354;fillColor=#647687;align=left;verticalAlign=top;spacingLeft=4;spacingRight=4;overflow=hidden;rotatable=0;points=[[0,0.5],[1,0.5]];portConstraint=eastwest;fontFamily=Verdana;fontStyle=4;fontColor=#ffffff;" parent="hb2xzzKgo9RsKNRLrnYX-29" vertex="1">
                    <mxGeometry y="26" width="260" height="76" as="geometry"/>
                </mxCell>
                <mxCell id="hb2xzzKgo9RsKNRLrnYX-33" value="BookingList" style="swimlane;fontStyle=1;align=center;verticalAlign=top;childLayout=stackLayout;horizontal=1;startSize=26;horizontalStack=0;resizeParent=1;resizeParentMax=0;resizeLast=0;collapsible=1;marginBottom=0;fontFamily=Verdana;fillColor=#a0522d;fontColor=#ffffff;strokeColor=#6D1F00;" parent="1" vertex="1">
                    <mxGeometry x="50" y="960" width="530" height="190" as="geometry"/>
                </mxCell>
                <mxCell id="hb2xzzKgo9RsKNRLrnYX-34" value="- max: Int { readOnly }&#10;- numPersons: Int&#10;- bookings: Booking[] { readOnly }" style="text;strokeColor=#314354;fillColor=#647687;align=left;verticalAlign=top;spacingLeft=4;spacingRight=4;overflow=hidden;rotatable=0;points=[[0,0.5],[1,0.5]];portConstraint=eastwest;fontFamily=Verdana;fontColor=#ffffff;" parent="hb2xzzKgo9RsKNRLrnYX-33" vertex="1">
                    <mxGeometry y="26" width="530" height="64" as="geometry"/>
                </mxCell>
                <mxCell id="hb2xzzKgo9RsKNRLrnYX-35" value="" style="line;strokeWidth=1;fillColor=none;align=left;verticalAlign=middle;spacingTop=-1;spacingLeft=3;spacingRight=3;rotatable=0;labelPosition=right;points=[];portConstraint=eastwest;strokeColor=inherit;fontFamily=Verdana;" parent="hb2xzzKgo9RsKNRLrnYX-33" vertex="1">
                    <mxGeometry y="90" width="530" height="8" as="geometry"/>
                </mxCell>
                <mxCell id="hb2xzzKgo9RsKNRLrnYX-36" value="+ BookingList(int max)&#10;+ Add(Booking booking): Bool&#10;+ PrintAll(): String&#10;+ SaveToFile(string FileName): Void&#10;+ LoadFromFile(string fileName, FlightList flightList, CustomerList customerList): Void" style="text;strokeColor=#314354;fillColor=#647687;align=left;verticalAlign=top;spacingLeft=4;spacingRight=4;overflow=hidden;rotatable=0;points=[[0,0.5],[1,0.5]];portConstraint=eastwest;fontFamily=Verdana;fontColor=#ffffff;" parent="hb2xzzKgo9RsKNRLrnYX-33" vertex="1">
                    <mxGeometry y="98" width="530" height="92" as="geometry"/>
                </mxCell>
                <mxCell id="hb2xzzKgo9RsKNRLrnYX-38" value="FlightList" style="swimlane;fontStyle=1;align=center;verticalAlign=top;childLayout=stackLayout;horizontal=1;startSize=26;horizontalStack=0;resizeParent=1;resizeParentMax=0;resizeLast=0;collapsible=1;marginBottom=0;fontFamily=Verdana;fillColor=#a0522d;fontColor=#ffffff;strokeColor=#6D1F00;" parent="1" vertex="1">
                    <mxGeometry x="1390" y="890" width="270" height="240" as="geometry"/>
                </mxCell>
                <mxCell id="hb2xzzKgo9RsKNRLrnYX-39" value="- max: Int { readOnly }&#10;- numPersons: Int&#10;- flights: Flight[] { readOnly }" style="text;strokeColor=#314354;fillColor=#647687;align=left;verticalAlign=top;spacingLeft=4;spacingRight=4;overflow=hidden;rotatable=0;points=[[0,0.5],[1,0.5]];portConstraint=eastwest;fontFamily=Verdana;fontColor=#ffffff;" parent="hb2xzzKgo9RsKNRLrnYX-38" vertex="1">
                    <mxGeometry y="26" width="270" height="64" as="geometry"/>
                </mxCell>
                <mxCell id="hb2xzzKgo9RsKNRLrnYX-40" value="" style="line;strokeWidth=1;fillColor=none;align=left;verticalAlign=middle;spacingTop=-1;spacingLeft=3;spacingRight=3;rotatable=0;labelPosition=right;points=[];portConstraint=eastwest;strokeColor=inherit;fontFamily=Verdana;" parent="hb2xzzKgo9RsKNRLrnYX-38" vertex="1">
                    <mxGeometry y="90" width="270" height="8" as="geometry"/>
                </mxCell>
                <mxCell id="hb2xzzKgo9RsKNRLrnYX-41" value="+ FlightList(int max)&#10;+ GetFlights(): Flight[]&#10;+ Add(Flight flight): Bool&#10;+ Remove(Flight flight): Bool&#10;+ Search(int flightNumber): Flight&#10;+ PrintAll(): String&#10;+ Exists(int flightNumber): Bool&#10;+ SaveToFile(string FileName): Void&#10;+ LoadFromFile(string fileName): Void" style="text;strokeColor=#314354;fillColor=#647687;align=left;verticalAlign=top;spacingLeft=4;spacingRight=4;overflow=hidden;rotatable=0;points=[[0,0.5],[1,0.5]];portConstraint=eastwest;fontFamily=Verdana;fontColor=#ffffff;" parent="hb2xzzKgo9RsKNRLrnYX-38" vertex="1">
                    <mxGeometry y="98" width="270" height="142" as="geometry"/>
                </mxCell>
                <mxCell id="hb2xzzKgo9RsKNRLrnYX-46" value="CustomerList" style="swimlane;fontStyle=1;align=center;verticalAlign=top;childLayout=stackLayout;horizontal=1;startSize=26;horizontalStack=0;resizeParent=1;resizeParentMax=0;resizeLast=0;collapsible=1;marginBottom=0;fontFamily=Verdana;fillColor=#a0522d;fontColor=#ffffff;strokeColor=#6D1F00;" parent="1" vertex="1">
                    <mxGeometry x="1235" y="420" width="430" height="240" as="geometry"/>
                </mxCell>
                <mxCell id="hb2xzzKgo9RsKNRLrnYX-47" value="- max: Int { readOnly }&#10;- numPersons: Int&#10;- customers: Customer[] { readOnly }" style="text;strokeColor=#314354;fillColor=#647687;align=left;verticalAlign=top;spacingLeft=4;spacingRight=4;overflow=hidden;rotatable=0;points=[[0,0.5],[1,0.5]];portConstraint=eastwest;fontFamily=Verdana;fontColor=#ffffff;" parent="hb2xzzKgo9RsKNRLrnYX-46" vertex="1">
                    <mxGeometry y="26" width="430" height="64" as="geometry"/>
                </mxCell>
                <mxCell id="hb2xzzKgo9RsKNRLrnYX-48" value="" style="line;strokeWidth=1;fillColor=none;align=left;verticalAlign=middle;spacingTop=-1;spacingLeft=3;spacingRight=3;rotatable=0;labelPosition=right;points=[];portConstraint=eastwest;strokeColor=inherit;fontFamily=Verdana;" parent="hb2xzzKgo9RsKNRLrnYX-46" vertex="1">
                    <mxGeometry y="90" width="430" height="8" as="geometry"/>
                </mxCell>
                <mxCell id="hb2xzzKgo9RsKNRLrnYX-49" value="+ CustomerList(int max)&#10;+ GetCustomers(): Customer[]&#10;+ Add(Customer customer): Bool&#10;+ Remove(Customer customer): Bool&#10;+ Search(int CustomerID): Customer&#10;+ PrintAll(): String&#10;+ Exists(string firstName, string lastName, string phone): Bool&#10;+ SaveToFile(string FileName): Void&#10;+ LoadFromFile(string fileName): Void" style="text;strokeColor=#314354;fillColor=#647687;align=left;verticalAlign=top;spacingLeft=4;spacingRight=4;overflow=hidden;rotatable=0;points=[[0,0.5],[1,0.5]];portConstraint=eastwest;fontFamily=Verdana;fontColor=#ffffff;" parent="hb2xzzKgo9RsKNRLrnYX-46" vertex="1">
                    <mxGeometry y="98" width="430" height="142" as="geometry"/>
                </mxCell>
                <mxCell id="hb2xzzKgo9RsKNRLrnYX-51" value="InputUtilities" style="swimlane;fontStyle=1;align=center;verticalAlign=top;childLayout=stackLayout;horizontal=1;startSize=26;horizontalStack=0;resizeParent=1;resizeParentMax=0;resizeLast=0;collapsible=1;marginBottom=0;fontFamily=Verdana;fillColor=#a0522d;fontColor=#ffffff;strokeColor=#6D1F00;" parent="1" vertex="1">
                    <mxGeometry x="190" y="460" width="340" height="132" as="geometry"/>
                </mxCell>
                <mxCell id="hb2xzzKgo9RsKNRLrnYX-54" value="+ GetValidInputStrNumber(string question): String&#10;- ContainsSpace(string input): Bool&#10;+ GetValidInputNumber(string question): Int&#10;+ GetValidInput(): String&#10;+ GetValidInput(string question): string&#10;- ContainsNumber(string input): Bool" style="text;strokeColor=#314354;fillColor=#647687;align=left;verticalAlign=top;spacingLeft=4;spacingRight=4;overflow=hidden;rotatable=0;points=[[0,0.5],[1,0.5]];portConstraint=eastwest;fontFamily=Verdana;fontStyle=4;fontColor=#ffffff;" parent="hb2xzzKgo9RsKNRLrnYX-51" vertex="1">
                    <mxGeometry y="26" width="340" height="106" as="geometry"/>
                </mxCell>
                <mxCell id="hb2xzzKgo9RsKNRLrnYX-55" value="FileUtilities" style="swimlane;fontStyle=1;align=center;verticalAlign=top;childLayout=stackLayout;horizontal=1;startSize=26;horizontalStack=0;resizeParent=1;resizeParentMax=0;resizeLast=0;collapsible=1;marginBottom=0;fontFamily=Verdana;fillColor=#a0522d;fontColor=#ffffff;strokeColor=#6D1F00;" parent="1" vertex="1">
                    <mxGeometry x="120" y="710" width="530" height="152" as="geometry"/>
                </mxCell>
                <mxCell id="hb2xzzKgo9RsKNRLrnYX-57" value="+ SaveFlights(string location, Flight[] flights, int num): Void&#10;+ LoadFlights(string location): Flight[]&#10;+ SaveBookings(string location, Booking[] bookings, int num): Void&#10;+ LoadBookings(string location, Flight[] flights, Customer[] customers): Booking[]&#10;- FindFlightByNumber(int flightNumber,  Flight[] flights): Flight || null&#10;- FindCustomerByID(int customerID, Customer[] customers): Customer || null&#10;+ SaveCustomers(string location, Customer[] customers, int num): Void&#10;+ LoadCustomers(string location): Customer[]" style="text;strokeColor=#314354;fillColor=#647687;align=left;verticalAlign=top;spacingLeft=4;spacingRight=4;overflow=hidden;rotatable=0;points=[[0,0.5],[1,0.5]];portConstraint=eastwest;fontFamily=Verdana;fontStyle=4;fontColor=#ffffff;" parent="hb2xzzKgo9RsKNRLrnYX-55" vertex="1">
                    <mxGeometry y="26" width="530" height="126" as="geometry"/>
                </mxCell>
                <mxCell id="4" style="edgeStyle=none;html=1;exitX=0.103;exitY=0;exitDx=0;exitDy=0;exitPerimeter=0;" parent="1" source="hb2xzzKgo9RsKNRLrnYX-1" edge="1">
                    <mxGeometry relative="1" as="geometry">
                        <mxPoint x="870" y="510" as="sourcePoint"/>
                        <mxPoint x="530" y="310" as="targetPoint"/>
                        <Array as="points">
                            <mxPoint x="870" y="310"/>
                        </Array>
                    </mxGeometry>
                </mxCell>
                <mxCell id="7" style="edgeStyle=none;html=1;exitX=0;exitY=0.5;exitDx=0;exitDy=0;entryX=1.006;entryY=0.66;entryDx=0;entryDy=0;entryPerimeter=0;" parent="1" source="hb2xzzKgo9RsKNRLrnYX-2" target="hb2xzzKgo9RsKNRLrnYX-54" edge="1">
                    <mxGeometry relative="1" as="geometry">
                        <mxPoint x="540" y="559" as="targetPoint"/>
                    </mxGeometry>
                </mxCell>
                <mxCell id="8" value="" style="endArrow=open;html=1;endSize=12;startArrow=diamondThin;startSize=14;startFill=1;edgeStyle=orthogonalEdgeStyle;align=left;verticalAlign=bottom;exitX=0;exitY=0.25;exitDx=0;exitDy=0;entryX=0.5;entryY=1;entryDx=0;entryDy=0;" parent="1" target="hb2xzzKgo9RsKNRLrnYX-33" edge="1">
                    <mxGeometry x="-1" y="3" relative="1" as="geometry">
                        <mxPoint x="570" y="1392" as="sourcePoint"/>
                        <mxPoint x="315" y="1190" as="targetPoint"/>
                        <Array as="points">
                            <mxPoint x="315" y="1392"/>
                        </Array>
                    </mxGeometry>
                </mxCell>
                <mxCell id="11" value="&lt;br&gt;" style="endArrow=open;html=1;endSize=12;startArrow=diamondThin;startSize=14;startFill=1;edgeStyle=orthogonalEdgeStyle;align=left;verticalAlign=bottom;exitX=0.465;exitY=1.005;exitDx=0;exitDy=0;entryX=0.5;entryY=0;entryDx=0;entryDy=0;exitPerimeter=0;" parent="1" source="hb2xzzKgo9RsKNRLrnYX-13" target="hb2xzzKgo9RsKNRLrnYX-46" edge="1">
                    <mxGeometry x="-1" y="3" relative="1" as="geometry">
                        <mxPoint x="1420" y="400" as="sourcePoint"/>
                        <mxPoint x="1580" y="400" as="targetPoint"/>
                        <mxPoint as="offset"/>
                    </mxGeometry>
                </mxCell>
                <mxCell id="12" value="&lt;br&gt;" style="endArrow=open;html=1;endSize=12;startArrow=diamondThin;startSize=14;startFill=1;edgeStyle=orthogonalEdgeStyle;align=left;verticalAlign=bottom;" parent="1" target="hb2xzzKgo9RsKNRLrnYX-41" edge="1">
                    <mxGeometry x="-1" y="3" relative="1" as="geometry">
                        <mxPoint x="1300" y="1161" as="sourcePoint"/>
                        <mxPoint x="1486.0900000000001" y="1197.982" as="targetPoint"/>
                        <Array as="points">
                            <mxPoint x="1326" y="1161"/>
                            <mxPoint x="1326" y="1220"/>
                            <mxPoint x="1486" y="1220"/>
                        </Array>
                    </mxGeometry>
                </mxCell>
                <mxCell id="17" style="edgeStyle=none;html=1;entryX=0.319;entryY=0.013;entryDx=0;entryDy=0;entryPerimeter=0;" parent="1" target="hb2xzzKgo9RsKNRLrnYX-38" edge="1">
                    <mxGeometry relative="1" as="geometry">
                        <mxPoint x="1136" y="756" as="sourcePoint"/>
                        <Array as="points">
                            <mxPoint x="1476" y="760"/>
                        </Array>
                    </mxGeometry>
                </mxCell>
                <mxCell id="18" style="edgeStyle=none;html=1;exitX=0;exitY=0.5;exitDx=0;exitDy=0;" parent="1" source="hb2xzzKgo9RsKNRLrnYX-4" edge="1">
                    <mxGeometry relative="1" as="geometry">
                        <mxPoint x="580" y="1070" as="targetPoint"/>
                        <Array as="points">
                            <mxPoint x="700" y="1070"/>
                        </Array>
                    </mxGeometry>
                </mxCell>
                <mxCell id="19" style="edgeStyle=none;html=1;exitX=1;exitY=0.5;exitDx=0;exitDy=0;" parent="1" source="hb2xzzKgo9RsKNRLrnYX-4" edge="1">
                    <mxGeometry relative="1" as="geometry">
                        <Array as="points">
                            <mxPoint x="1470" y="700"/>
                        </Array>
                        <mxPoint x="1470" y="660" as="targetPoint"/>
                    </mxGeometry>
                </mxCell>
                <mxCell id="23" value="" style="endArrow=open;endFill=1;endSize=12;html=1;entryX=0.496;entryY=1.025;entryDx=0;entryDy=0;entryPerimeter=0;exitX=1;exitY=0.5;exitDx=0;exitDy=0;" parent="1" source="hb2xzzKgo9RsKNRLrnYX-24" target="hb2xzzKgo9RsKNRLrnYX-19" edge="1">
                    <mxGeometry width="160" relative="1" as="geometry">
                        <mxPoint x="960" y="1260" as="sourcePoint"/>
                        <mxPoint x="1120" y="1260" as="targetPoint"/>
                        <Array as="points">
                            <mxPoint x="1038" y="1363"/>
                        </Array>
                    </mxGeometry>
                </mxCell>
                <mxCell id="29" style="edgeStyle=none;html=1;" parent="1" edge="1">
                    <mxGeometry relative="1" as="geometry">
                        <Array as="points">
                            <mxPoint x="30" y="799"/>
                            <mxPoint x="40" y="-50"/>
                            <mxPoint x="1360" y="-40"/>
                        </Array>
                        <mxPoint x="120" y="799" as="sourcePoint"/>
                        <mxPoint x="1360" y="80" as="targetPoint"/>
                    </mxGeometry>
                </mxCell>
                <mxCell id="33" style="edgeStyle=none;html=1;entryX=0;entryY=-0.031;entryDx=0;entryDy=0;entryPerimeter=0;" parent="1" target="hb2xzzKgo9RsKNRLrnYX-39" edge="1">
                    <mxGeometry relative="1" as="geometry">
                        <mxPoint x="630" y="860" as="sourcePoint"/>
                        <Array as="points">
                            <mxPoint x="630" y="910"/>
                        </Array>
                        <mxPoint x="1380" y="920" as="targetPoint"/>
                    </mxGeometry>
                </mxCell>
                <mxCell id="35" style="edgeStyle=none;html=1;exitX=0.831;exitY=1.013;exitDx=0;exitDy=0;exitPerimeter=0;" parent="1" source="hb2xzzKgo9RsKNRLrnYX-9" edge="1">
                    <mxGeometry relative="1" as="geometry">
                        <mxPoint x="1230" y="450" as="targetPoint"/>
                        <Array as="points">
                            <mxPoint x="1080" y="450"/>
                        </Array>
                    </mxGeometry>
                </mxCell>
                <mxCell id="36" style="edgeStyle=none;html=1;entryX=1.007;entryY=0.211;entryDx=0;entryDy=0;entryPerimeter=0;exitX=1.003;exitY=0.111;exitDx=0;exitDy=0;exitPerimeter=0;" parent="1" source="hb2xzzKgo9RsKNRLrnYX-7" target="hb2xzzKgo9RsKNRLrnYX-41" edge="1">
                    <mxGeometry relative="1" as="geometry">
                        <mxPoint x="1180" y="50" as="sourcePoint"/>
                        <Array as="points">
                            <mxPoint x="1940" y="42"/>
                            <mxPoint x="1940" y="1020"/>
                        </Array>
                        <mxPoint x="1620" y="1030" as="targetPoint"/>
                    </mxGeometry>
                </mxCell>
                <mxCell id="37" style="edgeStyle=none;html=1;exitX=0.003;exitY=0.145;exitDx=0;exitDy=0;exitPerimeter=0;" parent="1" source="hb2xzzKgo9RsKNRLrnYX-9" edge="1">
                    <mxGeometry relative="1" as="geometry">
                        <mxPoint x="590" y="110" as="sourcePoint"/>
                        <mxPoint x="50" y="1055" as="targetPoint"/>
                        <Array as="points">
                            <mxPoint x="-30" y="120"/>
                            <mxPoint x="-40" y="1055"/>
                        </Array>
                    </mxGeometry>
                </mxCell>
                <mxCell id="41" value="" style="endArrow=classic;html=1;exitX=1;exitY=0.5;exitDx=0;exitDy=0;" parent="1" source="hb2xzzKgo9RsKNRLrnYX-28" edge="1">
                    <mxGeometry width="50" height="50" relative="1" as="geometry">
                        <mxPoint x="1260" y="1440" as="sourcePoint"/>
                        <mxPoint x="1782" y="340" as="targetPoint"/>
                        <Array as="points">
                            <mxPoint x="1782" y="1470"/>
                        </Array>
                    </mxGeometry>
                </mxCell>
                <mxCell id="39" value="" style="endArrow=classic;html=1;entryX=0.113;entryY=0;entryDx=0;entryDy=0;exitX=0.932;exitY=1.016;exitDx=0;exitDy=0;exitPerimeter=0;entryPerimeter=0;" parent="1" source="hb2xzzKgo9RsKNRLrnYX-57" edge="1">
                    <mxGeometry width="50" height="50" relative="1" as="geometry">
                        <mxPoint x="616.0100000000002" y="871.9539999999997" as="sourcePoint"/>
                        <mxPoint x="616.1599999999999" y="1300" as="targetPoint"/>
                        <Array as="points">
                            <mxPoint x="616" y="990"/>
                        </Array>
                    </mxGeometry>
                </mxCell>
            </root>
        </mxGraphModel>
    </diagram>
</mxfile>